<?xml version="1.0" encoding="UTF-8" standalone="no"?>
<!DOCTYPE svg PUBLIC "-//W3C//DTD SVG 1.1//EN" "http://www.w3.org/Graphics/SVG/1.1/DTD/svg11.dtd">
<!--Generated by Intaglio, www.PurgatoryDesign.com-->
<svg version="1.1" viewBox="133,61,202,490" width="202" height="490" xmlns="http://www.w3.org/2000/svg" xmlns:xlink="http://www.w3.org/1999/xlink"><path fill="none" stroke="#000" stroke-width="21" d="M324,162 C324,211.706,283.706,252,234,252 C184.294,252,144,211.706,144,162 C144,112.294,184.294,72,234,72 C283.706,72,324,112.294,324,162 Z"/><path fill="none" stroke="#000" stroke-width="21" d="M324,450 C324,499.706,283.706,540,234,540 C184.294,540,144,499.706,144,450 C144,400.294,184.294,360,234,360 C283.706,360,324,400.294,324,450 Z"/><path fill="#1dc600" stroke="#000" stroke-width="7" d="M288,450 C288,479.823,263.823,504,234,504 C204.177,504,180,479.823,180,450 C180,420.177,204.177,396,234,396 C263.823,396,288,420.177,288,450 Z"/></svg>
